<svg width="32" height="32" viewBox="0 0 32 32" fill="none" xmlns="http://www.w3.org/2000/svg">
<path d="M13.3333 6.66667C13.3333 6.29848 13.6318 6 14 6C14.3682 6 14.6666 6.29848 14.6666 6.66667V8C14.6666 8.36819 14.3682 8.66667 14 8.66667C13.6318 8.66667 13.3333 8.36819 13.3333 8V6.66667Z" fill="#AAAAAA"/>
<path d="M18.6666 6.66667C18.6666 6.29848 18.3682 6 18 6C17.6318 6 17.3333 6.29848 17.3333 6.66667V8C17.3333 8.36819 17.6318 8.66667 18 8.66667C18.3682 8.66667 18.6666 8.36819 18.6666 8V6.66667Z" fill="#AAAAAA"/>
<path fill-rule="evenodd" clip-rule="evenodd" d="M7.99999 11.3333C8.73637 11.3333 9.33332 10.7364 9.33332 10V4C9.33332 2.89543 10.2288 2 11.3333 2H20.6667C21.7712 2 22.6667 2.89543 22.6667 4V10C22.6667 10.7364 23.2636 11.3333 24 11.3333C24.7364 11.3333 25.3333 11.9303 25.3333 12.6667V26C25.3333 27.0609 24.9119 28.0783 24.1618 28.8284C23.4116 29.5786 22.3942 30 21.3333 30H10.6667C9.60579 30 8.58838 29.5786 7.83823 28.8284C7.08808 28.0783 6.66666 27.0609 6.66666 26V12.6667C6.66666 11.9303 7.26361 11.3333 7.99999 11.3333ZM12 6.66667C12 5.5621 12.8954 4.66667 14 4.66667H18C19.1046 4.66667 20 5.5621 20 6.66667V9.33334C20 10.4379 19.1046 11.3333 18 11.3333H14C12.8954 11.3333 12 10.4379 12 9.33333V6.66667ZM22.6667 16C22.6667 14.8954 21.7712 14 20.6667 14H11.3333C10.2288 14 9.33332 14.8954 9.33332 16V26C9.33332 26.3536 9.4738 26.6928 9.72385 26.9428C9.9739 27.1929 10.313 27.3333 10.6667 27.3333H21.3333C21.6869 27.3333 22.0261 27.1929 22.2761 26.9428C22.5262 26.6928 22.6667 26.3536 22.6667 26V16Z" fill="#AAAAAA"/>
</svg>
