<svg width="32" height="32" viewBox="0 0 32 32" fill="none" xmlns="http://www.w3.org/2000/svg">
<path d="M8.00001 2.66667H24C24.7073 2.66667 25.3855 2.94762 25.8856 3.44771C26.3857 3.94781 26.6667 4.62609 26.6667 5.33333V26.6667C26.6667 27.3739 26.3857 28.0522 25.8856 28.5523C25.3855 29.0524 24.7073 29.3333 24 29.3333H8.00001C7.29277 29.3333 6.61449 29.0524 6.11439 28.5523C5.61429 28.0522 5.33334 27.3739 5.33334 26.6667V5.33333C5.33334 4.62609 5.61429 3.94781 6.11439 3.44771C6.61449 2.94762 7.29277 2.66667 8.00001 2.66667V2.66667ZM16 5.33333C13.8783 5.33333 11.8434 6.17619 10.3432 7.67648C8.84287 9.17677 8.00001 11.2116 8.00001 13.3333C8.00001 17.7467 11.5867 21.3333 16.1333 21.3333L14.96 18.36C14.7855 18.0518 14.7395 17.6873 14.8318 17.3454C14.9242 17.0035 15.1474 16.7118 15.4533 16.5333L16.6 15.8667C16.9082 15.6922 17.2727 15.6461 17.6146 15.7385C17.9565 15.8308 18.2482 16.0541 18.4267 16.36L20.9867 19.5867C21.9281 18.8391 22.6881 17.8883 23.21 16.8053C23.7318 15.7224 24.0019 14.5354 24 13.3333C24 11.2116 23.1572 9.17677 21.6569 7.67648C20.1566 6.17619 18.1217 5.33333 16 5.33333ZM16 12C16.3536 12 16.6928 12.1405 16.9428 12.3905C17.1929 12.6406 17.3333 12.9797 17.3333 13.3333C17.3333 13.687 17.1929 14.0261 16.9428 14.2761C16.6928 14.5262 16.3536 14.6667 16 14.6667C15.6464 14.6667 15.3073 14.5262 15.0572 14.2761C14.8072 14.0261 14.6667 13.687 14.6667 13.3333C14.6667 12.9797 14.8072 12.6406 15.0572 12.3905C15.3073 12.1405 15.6464 12 16 12V12ZM9.33334 24C8.97972 24 8.64058 24.1405 8.39053 24.3905C8.14049 24.6406 8.00001 24.9797 8.00001 25.3333C8.00001 25.687 8.14049 26.0261 8.39053 26.2761C8.64058 26.5262 8.97972 26.6667 9.33334 26.6667C9.68697 26.6667 10.0261 26.5262 10.2762 26.2761C10.5262 26.0261 10.6667 25.687 10.6667 25.3333C10.6667 24.9797 10.5262 24.6406 10.2762 24.3905C10.0261 24.1405 9.68697 24 9.33334 24ZM16.12 17.6933L19.44 26.1067L22.8933 24.1067L17.2667 17.0267L16.12 17.6933V17.6933Z" fill="#AAAAAA"/>
</svg>
