<svg width="32" height="32" viewBox="0 0 32 32" fill="none" xmlns="http://www.w3.org/2000/svg">
<path d="M16 12C15.7363 12 15.4785 12.0782 15.2592 12.2247C15.04 12.3712 14.8691 12.5795 14.7681 12.8231C14.6672 13.0667 14.6408 13.3348 14.6923 13.5935C14.7437 13.8521 14.8707 14.0897 15.0572 14.2761C15.2437 14.4626 15.4812 14.5896 15.7399 14.641C15.9985 14.6925 16.2666 14.6661 16.5102 14.5652C16.7539 14.4643 16.9621 14.2934 17.1086 14.0741C17.2551 13.8548 17.3333 13.597 17.3333 13.3333C17.3333 12.9797 17.1928 12.6406 16.9428 12.3905C16.6927 12.1405 16.3536 12 16 12ZM16 12C15.7363 12 15.4785 12.0782 15.2592 12.2247C15.04 12.3712 14.8691 12.5795 14.7681 12.8231C14.6672 13.0667 14.6408 13.3348 14.6923 13.5935C14.7437 13.8521 14.8707 14.0897 15.0572 14.2761C15.2437 14.4626 15.4812 14.5896 15.7399 14.641C15.9985 14.6925 16.2666 14.6661 16.5102 14.5652C16.7539 14.4643 16.9621 14.2934 17.1086 14.0741C17.2551 13.8548 17.3333 13.597 17.3333 13.3333C17.3333 12.9797 17.1928 12.6406 16.9428 12.3905C16.6927 12.1405 16.3536 12 16 12ZM24 2.66667H7.99999C7.29274 2.66667 6.61447 2.94762 6.11437 3.44771C5.61427 3.94781 5.33332 4.62609 5.33332 5.33333V17.4533C5.77315 17.3725 6.21947 17.3324 6.66666 17.3333C7.57709 17.3326 8.48028 17.4952 9.33332 17.8133C8.46178 16.5248 7.98479 15.0102 7.96075 13.4548C7.93672 11.8994 8.36667 10.3707 9.19798 9.05591C10.0293 7.74109 11.2259 6.69716 12.6413 6.0519C14.0568 5.40663 15.6296 5.18802 17.1674 5.42283C18.7051 5.65765 20.1411 6.33569 21.2994 7.37397C22.4578 8.41225 23.2883 9.76572 23.6894 11.2687C24.0904 12.7717 24.0446 14.359 23.5574 15.8364C23.0703 17.3137 22.163 18.617 20.9467 19.5867L18.3867 16.36C18.2995 16.2072 18.1831 16.0732 18.0439 15.9656C17.9048 15.858 17.7458 15.779 17.576 15.7332C17.4062 15.6873 17.229 15.6755 17.0547 15.6984C16.8803 15.7213 16.7122 15.7785 16.56 15.8667L15.4133 16.5333C15.2605 16.6204 15.1265 16.7369 15.0189 16.876C14.9113 17.0152 14.8323 17.1742 14.7865 17.344C14.7406 17.5138 14.7288 17.691 14.7517 17.8653C14.7746 18.0397 14.8318 18.2078 14.92 18.36L16.1333 21.3333C15.1775 21.3297 14.2298 21.1582 13.3333 20.8267C14.1717 22.0771 14.6402 23.5387 14.685 25.0435C14.7298 26.5483 14.3491 28.0352 13.5867 29.3333H24C24.7072 29.3333 25.3855 29.0524 25.8856 28.5523C26.3857 28.0522 26.6667 27.3739 26.6667 26.6667V5.33333C26.6667 4.62609 26.3857 3.94781 25.8856 3.44771C25.3855 2.94762 24.7072 2.66667 24 2.66667ZM19.44 26.1067L16.12 17.6933L17.2667 17.0267L22.8933 24.1067L19.44 26.1067ZM16 14.6667C16.2637 14.6667 16.5215 14.5885 16.7407 14.442C16.96 14.2955 17.1309 14.0872 17.2318 13.8436C17.3327 13.5999 17.3591 13.3319 17.3077 13.0732C17.2563 12.8146 17.1293 12.577 16.9428 12.3905C16.7563 12.2041 16.5188 12.0771 16.2601 12.0256C16.0015 11.9742 15.7334 12.0006 15.4897 12.1015C15.2461 12.2024 15.0379 12.3733 14.8914 12.5926C14.7449 12.8118 14.6667 13.0696 14.6667 13.3333C14.6667 13.687 14.8071 14.0261 15.0572 14.2761C15.3072 14.5262 15.6464 14.6667 16 14.6667ZM9.49332 30.0533L6.66666 27.2133L3.83999 30.0533L1.94666 28.16L4.78666 25.3333L1.94666 22.5067L3.83999 20.6133L6.66666 23.4533L9.49332 20.6133L11.3867 22.5067L8.54666 25.3333L11.3867 28.16L9.49332 30.0533Z" fill="#AAAAAA"/>
</svg>
