<svg width="32" height="32" viewBox="0 0 32 32" fill="none" xmlns="http://www.w3.org/2000/svg">
<path fill-rule="evenodd" clip-rule="evenodd" d="M9.33332 10C9.33332 10.7364 8.73637 11.3333 7.99999 11.3333C7.26361 11.3333 6.66666 11.9303 6.66666 12.6667V26C6.66666 26.6338 6.81706 27.252 7.09809 27.807L9.33332 25.299V16C9.33332 14.8954 10.2288 14 11.3333 14H19.4031L22.7006 10.3001C22.6784 10.2036 22.6667 10.1032 22.6667 10V4C22.6667 2.89543 21.7712 2 20.6667 2H11.3333C10.2288 2 9.33332 2.89543 9.33332 4V10ZM24.4033 11.3954L21.7804 14.3386C22.3149 14.6976 22.6667 15.3077 22.6667 16V26C22.6667 26.3536 22.5262 26.6928 22.2761 26.9428C22.0261 27.1929 21.6869 27.3333 21.3333 27.3333H10.6667C10.5262 27.3333 10.388 27.3112 10.2568 27.2688L8.43129 29.3171C9.08704 29.759 9.86443 30 10.6667 30H21.3333C22.3942 30 23.4116 29.5786 24.1618 28.8284C24.9119 28.0783 25.3333 27.0609 25.3333 26V12.6667C25.3333 12.0709 24.9426 11.5664 24.4033 11.3954ZM14 4.66667C12.8954 4.66667 12 5.5621 12 6.66667V9.33333C12 10.4379 12.8954 11.3333 14 11.3333H18C19.1046 11.3333 20 10.4379 20 9.33334V6.66667C20 5.5621 19.1046 4.66667 18 4.66667H14ZM13.3333 6.66667C13.3333 6.29848 13.6318 6 14 6C14.3682 6 14.6667 6.29848 14.6667 6.66667V8C14.6667 8.36819 14.3682 8.66667 14 8.66667C13.6318 8.66667 13.3333 8.36819 13.3333 8V6.66667ZM18.6667 6.66667C18.6667 6.29848 18.3682 6 18 6C17.6318 6 17.3333 6.29848 17.3333 6.66667V8C17.3333 8.36819 17.6318 8.66667 18 8.66667C18.3682 8.66667 18.6667 8.36819 18.6667 8V6.66667Z" fill="#AAAAAA"/>
<rect x="6" y="28.6329" width="28.9772" height="1" transform="rotate(-48.2921 6 28.6329)" fill="#AAAAAA"/>
</svg>
