<svg width="32" height="32" viewBox="0 0 32 32" fill="none" xmlns="http://www.w3.org/2000/svg">
<path d="M23.4792 22.5417C23.4792 22.0972 23.2708 21.7431 22.8542 21.4792C20.1736 19.8819 17.0694 19.0833 13.5417 19.0833C11.6944 19.0833 9.70139 19.3194 7.5625 19.7917C6.97917 19.9167 6.6875 20.2778 6.6875 20.875C6.6875 21.1528 6.78125 21.3924 6.96875 21.5938C7.15625 21.7951 7.40278 21.8958 7.70833 21.8958C7.77778 21.8958 8.03472 21.8403 8.47917 21.7292C10.3125 21.3542 12 21.1667 13.5417 21.1667C16.6806 21.1667 19.4375 21.8819 21.8125 23.3125C22.0764 23.4653 22.3056 23.5417 22.5 23.5417C22.7639 23.5417 22.9931 23.4479 23.1875 23.2604C23.3819 23.0729 23.4792 22.8333 23.4792 22.5417ZM25.4792 18.0625C25.4792 17.5069 25.2361 17.0833 24.75 16.7917C21.4583 14.8333 17.6528 13.8542 13.3333 13.8542C11.2083 13.8542 9.10417 14.1458 7.02083 14.7292C6.35417 14.9097 6.02083 15.3542 6.02083 16.0625C6.02083 16.4097 6.14236 16.7049 6.38542 16.9479C6.62847 17.191 6.92361 17.3125 7.27083 17.3125C7.36806 17.3125 7.625 17.2569 8.04167 17.1458C9.73611 16.6875 11.4792 16.4583 13.2708 16.4583C17.1458 16.4583 20.5347 17.3194 23.4375 19.0417C23.7708 19.2222 24.0347 19.3125 24.2292 19.3125C24.5764 19.3125 24.8715 19.191 25.1146 18.9479C25.3576 18.7049 25.4792 18.4097 25.4792 18.0625ZM27.7292 12.8958C27.7292 12.2431 27.4514 11.7569 26.8958 11.4375C25.1458 10.4236 23.1111 9.65625 20.7917 9.13542C18.4722 8.61458 16.0903 8.35417 13.6458 8.35417C10.8125 8.35417 8.28472 8.68056 6.0625 9.33333C5.74306 9.43056 5.47569 9.60764 5.26042 9.86458C5.04514 10.1215 4.9375 10.4583 4.9375 10.875C4.9375 11.3056 5.07986 11.6667 5.36458 11.9583C5.64931 12.25 6.00694 12.3958 6.4375 12.3958C6.59028 12.3958 6.86806 12.3403 7.27083 12.2292C9.11806 11.7153 11.25 11.4583 13.6667 11.4583C15.875 11.4583 18.0243 11.6944 20.1146 12.1667C22.2049 12.6389 23.9653 13.2986 25.3958 14.1458C25.6875 14.3125 25.9653 14.3958 26.2292 14.3958C26.6319 14.3958 26.9826 14.2535 27.2813 13.9688C27.5799 13.684 27.7292 13.3264 27.7292 12.8958ZM32 16C32 18.9028 31.2847 21.5799 29.8542 24.0313C28.4236 26.4826 26.4826 28.4236 24.0313 29.8542C21.5799 31.2847 18.9028 32 16 32C13.0972 32 10.4201 31.2847 7.96875 29.8542C5.51736 28.4236 3.57639 26.4826 2.14583 24.0313C0.715278 21.5799 0 18.9028 0 16C0 13.0972 0.715278 10.4201 2.14583 7.96875C3.57639 5.51736 5.51736 3.57639 7.96875 2.14583C10.4201 0.715278 13.0972 0 16 0C18.9028 0 21.5799 0.715278 24.0313 2.14583C26.4826 3.57639 28.4236 5.51736 29.8542 7.96875C31.2847 10.4201 32 13.0972 32 16Z" fill="#AAAAAA"/>
</svg>
